<?xml version="1.0" encoding="utf-8"?>
<svg xmlns="http://www.w3.org/2000/svg"
	xmlns:xlink="http://www.w3.org/1999/xlink"
	width="24px" height="24px" viewBox="0 0 24 24">
<path fillRule="evenodd" d="M 22.04 1.91C 19.47-0.68 15.28-0.68 12.7 1.91 10.84 3.77 10.35 6.47 11.17 8.8 11.17 8.8 1.36 18.63 1.36 18.63 1.36 18.63 0.02 22.64 0.02 22.64 0.02 22.64 4.03 23.98 4.03 23.98 4.03 23.98 5.22 22.64 5.22 22.64 5.22 22.64 9.08 21.3 9.08 21.3 9.08 21.3 9.08 18.63 9.08 18.63 9.08 18.63 10.56 17.29 10.56 17.29 10.56 17.29 11.96 18.63 11.96 18.63 11.96 18.63 14.67 15.95 14.67 15.95 14.67 15.95 13.35 14.61 13.35 14.61 13.35 14.61 15.16 12.81 15.16 12.81 17.49 13.63 20.18 13.14 22.04 11.27 24.62 8.69 24.62 4.49 22.04 1.91ZM 18.88 7.23C 17.7 7.23 16.74 6.26 16.74 5.08 16.74 3.89 17.7 2.93 18.88 2.93 20.06 2.93 21.02 3.89 21.02 5.08 21.02 6.26 20.06 7.23 18.88 7.23Z" fill="rgb(223,37,113)"/></svg>